<svg xmlns="http://www.w3.org/2000/svg" width="26.269" height="26.208" viewBox="0 0 26.269 26.208">
  <g id="linkedin" transform="translate(-68.847 -69.215)">
    <g id="Groupe_7" data-name="Groupe 7" transform="translate(68.847 69.215)">
      <path id="Tracé_47" data-name="Tracé 47" d="M72.019,69.215a3.15,3.15,0,1,1-3.172,3.146A3.163,3.163,0,0,1,72.019,69.215Z" transform="translate(-68.847 -69.215)" fill="#878787"/>
      <path id="Tracé_48" data-name="Tracé 48" d="M78.763,192.165H75.069a.868.868,0,0,1-.868-.868V175.539a.868.868,0,0,1,.868-.868h3.694a.868.868,0,0,1,.868.868V191.3A.868.868,0,0,1,78.763,192.165Z" transform="translate(-73.759 -165.961)" fill="#878787"/>
      <path id="Tracé_49" data-name="Tracé 49" d="M198.475,175.244a5.982,5.982,0,0,0-5.982-5.982h-.947a5.319,5.319,0,0,0-4.655,2.748l-.05-.006v-1.934a.36.36,0,0,0-.36-.36h-4.609a.36.36,0,0,0-.36.36v16.774a.36.36,0,0,0,.36.36h4.709a.36.36,0,0,0,.361-.36v-9.691a3.071,3.071,0,0,1,3.011-3.085,3.046,3.046,0,0,1,3.081,3.046v9.731a.36.36,0,0,0,.36.36h4.721a.36.36,0,0,0,.36-.36v-11.6Z" transform="translate(-172.206 -160.998)" fill="#878787"/>
    </g>
  </g>
</svg>
