<svg xmlns="http://www.w3.org/2000/svg" width="34.628" height="33.186" viewBox="0 0 34.628 33.186">
  <path id="github" d="M17.314.5A17.164,17.164,0,0,0,0,17.514,17.042,17.042,0,0,0,11.839,33.657c.866.16,1.183-.366,1.183-.818,0-.4-.014-1.475-.022-2.893-4.816,1.026-5.832-2.283-5.832-2.283a4.535,4.535,0,0,0-1.926-2.489c-1.568-1.055.121-1.033.121-1.033a3.622,3.622,0,0,1,2.652,1.753,3.728,3.728,0,0,0,5.043,1.415,3.6,3.6,0,0,1,1.1-2.275c-3.845-.426-7.887-1.889-7.887-8.407A6.5,6.5,0,0,1,8.05,12.062a5.953,5.953,0,0,1,.151-4.5S9.651,7.1,12.963,9.3a16.6,16.6,0,0,1,8.657,0c3.29-2.2,4.74-1.744,4.74-1.744a6.117,6.117,0,0,1,.173,4.5,6.527,6.527,0,0,1,1.775,4.565c0,6.536-4.047,7.975-7.9,8.393a4.037,4.037,0,0,1,1.169,3.148c0,2.277-.022,4.106-.022,4.659,0,.446.3.978,1.19.808A16.991,16.991,0,0,0,34.628,17.514,17.167,17.167,0,0,0,17.314.5Z" transform="translate(0 -0.5)" fill="#878787"/>
</svg>
